<?xml version="1.0" encoding="UTF-8" standalone="no"?>
<!-- Created with Inkscape (http://www.inkscape.org/) -->

<svg
   width="100"
   height="100"
   version="1.1"
   viewBox="0 0 100 100"
   xml:space="preserve"
   id="svg22192"
   sodipodi:docname="default_icon.svg"
   inkscape:version="1.3.2 (091e20e, 2023-11-25, custom)"
   xmlns:inkscape="http://www.inkscape.org/namespaces/inkscape"
   xmlns:sodipodi="http://sodipodi.sourceforge.net/DTD/sodipodi-0.dtd"
   xmlns="http://www.w3.org/2000/svg"
   xmlns:svg="http://www.w3.org/2000/svg"><sodipodi:namedview
     id="namedview1"
     pagecolor="#ffffff"
     bordercolor="#111111"
     borderopacity="1"
     inkscape:showpageshadow="0"
     inkscape:pageopacity="0"
     inkscape:pagecheckerboard="1"
     inkscape:deskcolor="#d1d1d1"
     inkscape:zoom="2.4970419"
     inkscape:cx="79.293824"
     inkscape:cy="102.32107"
     inkscape:current-layer="svg22192" /><animateTransform
     attributeName="transform"
     attributeType="XML"
     dur="10s"
     from="0,0,0"
     repeatCount="indefinite"
     to="359,0,0"
     type="rotate" /><defs
     id="defs22188"><linearGradient
       id="linearGradient19700"
       x1="18.733"
       x2="77.041634"
       y1="84.084"
       y2="12.977389"
       gradientTransform="translate(-.051407 -.22692)"
       gradientUnits="userSpaceOnUse"><stop
         style="stop-color:#40e0d0"
         offset="0"
         id="stop22183" /><stop
         style="stop-color:#ffffe0"
         offset="1"
         id="stop22185" /></linearGradient></defs><circle
     id="path19189"
     cx="50"
     cy="50"
     r="46"
     style="fill-rule:evenodd;fill:url(#linearGradient19700);paint-order:stroke fill markers;stroke-dashoffset:20.001;stroke-linecap:round;stroke-linejoin:round;stroke-width:0.5" /><path
     style="fill:#000000;stroke-width:1"
     d="m 45.084809,78.466516 c -2.447649,-0.701656 -3.441244,-1.15361 -5.225937,-2.377096 -2.515145,-1.724243 -4.937,-4.111406 -6.492901,-6.399883 l -1.406429,-2.068628 -4.633739,4.624201 c -3.988851,3.980641 -4.789009,4.624201 -5.749435,4.624201 -1.422995,0 -2.223526,-0.803825 -2.223526,-2.232666 0,-0.979844 0.676938,-1.80064 5.251813,-6.367896 l 5.251822,-5.243067 -0.681906,-1.978628 c -0.562686,-1.632701 -1.7144,-7.121342 -1.7144,-8.170215 0,-0.15571 -2.710922,-0.333209 -6.024274,-0.394443 -5.841909,-0.107964 -6.044657,-0.136525 -6.697364,-0.943494 -0.865193,-1.069666 -0.85035,-1.843599 0.05745,-2.997724 l 0.730566,-0.928769 h 5.93372 5.933712 l 0.236321,-1.850587 c 0.129971,-1.017824 0.380892,-2.40554 0.557596,-3.083814 l 0.321283,-1.233227 -4.578191,-4.58763 c -4.208724,-4.217411 -4.578179,-4.692308 -4.578179,-5.884765 0,-1.427207 0.946185,-2.394588 2.342129,-2.394588 0.845062,0 5.061456,4.132212 7.411014,7.263047 3.406277,4.538945 9.378736,8.155872 15.254514,9.23815 l 3.191763,0.5879 v 16.658687 c 0,13.108763 -0.0939,16.651969 -0.440616,16.627167 -0.242341,-0.01734 -1.154412,-0.23614 -2.026837,-0.486233 z m 7.40235,-16.157033 v -16.7308 l 1.969459,-0.246068 c 6.138236,-0.766922 12.816161,-4.613864 16.476818,-9.49177 2.349551,-3.130835 6.565947,-7.263047 7.41101,-7.263047 1.395943,0 2.342134,0.967381 2.342134,2.394588 0,1.192457 -0.369458,1.667354 -4.578187,5.884765 l -4.578188,4.58763 0.321283,1.233227 c 0.176704,0.678274 0.427114,2.062307 0.556468,3.075628 l 0.235194,1.8424 6.010978,0.09631 6.010979,0.09631 0.700346,0.93867 c 0.493889,0.661956 0.631157,1.214345 0.46564,1.873815 -0.393369,1.567314 -1.941583,1.946168 -7.953134,1.946168 -2.914292,0 -5.298717,0.137844 -5.298717,0.30632 0,1.068278 -1.145427,6.542512 -1.714392,8.193426 l -0.681914,1.978628 5.251822,5.243067 c 4.574884,4.567256 5.251822,5.388052 5.251822,6.367896 0,1.428841 -0.800538,2.232666 -2.223532,2.232666 -0.960424,0 -1.760585,-0.64356 -5.749438,-4.624201 l -4.633739,-4.624202 -1.406422,2.068628 c -3.181331,4.67922 -7.995637,8.041871 -13.040687,9.108534 l -1.145603,0.242211 z m -7.93109,-22.393006 c -4.563416,-1.184713 -9.006781,-3.917752 -11.126213,-6.843541 -0.973273,-1.343563 -0.987294,-1.421296 -0.419373,-2.325717 2.35106,-3.744139 6.886778,-7.482921 10.8406,-8.93589 3.090587,-1.135741 8.934187,-1.135435 12.221837,6.4e-4 4.008952,1.385326 8.573343,5.106411 10.960254,8.93525 0.56277,0.902737 0.54785,0.984656 -0.423609,2.325717 -1.908775,2.634989 -5.352983,4.903583 -9.88457,6.510665 -2.851576,1.011281 -8.916692,1.177191 -12.168926,0.332876 z"
     id="path1" /></svg>
